<svg width="271" height="271" viewBox="0 0 271 271" fill="none" xmlns="http://www.w3.org/2000/svg">
<path d="M135.5 0.0020752C60.6732 0.0020752 0 60.6634 0 135.496C0 210.329 60.6673 270.99 135.5 270.99C210.339 270.99 271 210.329 271 135.496C271 60.6634 210.339 0.0020752 135.5 0.0020752ZM135.5 40.5164C160.26 40.5164 180.323 60.586 180.323 85.3339C180.323 110.088 160.26 130.151 135.5 130.151C110.752 130.151 90.6885 110.088 90.6885 85.3339C90.6885 60.586 110.752 40.5164 135.5 40.5164ZM135.47 235.565C110.776 235.565 88.1589 226.571 70.714 211.686C66.4644 208.061 64.0122 202.746 64.0122 197.169C64.0122 172.07 84.3259 151.983 109.431 151.983H161.581C186.692 151.983 206.928 172.07 206.928 197.169C206.928 202.752 204.488 208.055 200.232 211.68C182.793 226.571 160.17 235.565 135.47 235.565Z" fill="#7C7C7C"/>
</svg>
